# xmcd
#
# Track frame offsets: 
#        150
#        11385
#        16570
#        25803
#        33064
#        42519
#        48261
#        68109
#        77876
#        98551
#        107393
#        129979
#        137175
#        156033
#        168316
#        191086
#        196535
#        216541
#        241254
#        248661
#
# Disc length: 3479 seconds
#
# Revision: 0
# Processed by: cddbd v1.5.2PL0 Copyright (c) Steve Scherf et al.
# Submitted via: ExactAudioCopy v0.99pb5
#
DISCID=f20d9514
DTITLE=Niels Muus, Orchestra Filarmonico Marchigiana - L'Elisir d'Amor
DTITLE=e [CD2]
DYEAR=2002
DGENRE=Opera
TTITLE0="Cantiamo, facciam brindisi" - Dulcamara, Giannetta
TTITLE1="Poiche cantar vi alletta" - Dulcamara, Giannetta, Belcore
TTITLE2=Io son ricco e tu sei bella" - Dulcamara, Adina
TTITLE3="Silenzio! E qua il notaro" - Belcore, Dulcamara, Adina
TTITLE4="Le feste nuziali" - Dulcamara, Nemorino
TTITLE5="La Donna e un animale stravagante" - Belcore, Nemorino
TTITLE6="Venti scudi" - Nemorino, Belcore
TTITLE7="Qua la mano giovinotto" - Belcore, Nemorino
TTITLE8="Saria possibile" - Coro, Giannetta
TTITLE9=Dell'elisir mirabile" - Nemorino, Giannetta
TTITLE10="Che vedo?" - Adina, Nemorino, Dulcamara, Giannetta
TTITLE11="Come sen va contento" - Adina, Dulcamara
TTITLE12="Quanto amore! Ed io, spietata" - Adina, Dulcamara
TTITLE13="Una tenera occhiatina" - Adina, Dulcamara
TTITLE14="Una furtiva lagrima" - Nemorino
TTITLE15="Eccola. Oh! Qual le accresce belta" - Nemorino
TTITLE16="Prendi, per me sei libero" - Adina, Nemorino
TTITLE17="Or,or si spiega" - Adina, Nemorino
TTITLE18="Alto" Fronte!" - Belcore, Adina, Dulcamara, Nemorino, Gianne
TTITLE18=tta
TTITLE19="Ei corregge ogni difetto" - Dulcamara, Nemorino, Adina, Belc
TTITLE19=ore, Coro
EXTD=
EXTT0=
EXTT1=
EXTT2=
EXTT3=
EXTT4=
EXTT5=
EXTT6=
EXTT7=
EXTT8=
EXTT9=
EXTT10=
EXTT11=
EXTT12=
EXTT13=
EXTT14=
EXTT15=
EXTT16=
EXTT17=
EXTT18=
EXTT19=
PLAYORDER=
